<svg xmlns="http://www.w3.org/2000/svg" viewBox="95.03 124.90 321.94 321.94"><defs><radialGradient id="s3d_caa15c" cx="0.35" cy="0.28" r="0.9"><stop offset="0" stop-color="#dabd8d"/><stop offset="0.45" stop-color="#caa15c"/><stop offset="1" stop-color="#a2814a"/></radialGradient><radialGradient id="s3d_46b4e8" cx="0.35" cy="0.28" r="0.9"><stop offset="0" stop-color="#7ecaef"/><stop offset="0.45" stop-color="#46b4e8"/><stop offset="1" stop-color="#3890ba"/></radialGradient><radialGradient id="s3d_e23c3c" cx="0.35" cy="0.28" r="0.9"><stop offset="0" stop-color="#eb7676"/><stop offset="0.45" stop-color="#e23c3c"/><stop offset="1" stop-color="#b53030"/></radialGradient></defs>
<path d="M 120 256 Q 256 220 392 256 L 364 392 Q 256 416 148 392 Z" fill="url(#s3d_caa15c)" data-flat="#caa15c" stroke="#1a1a1a" stroke-width="9" stroke-linejoin="round"/>
<path d="M 150 296 Q 256 318 362 296" fill="none" stroke="#8a5a2b" stroke-width="7"/>
<path d="M 150 344 Q 256 366 362 344" fill="none" stroke="#8a5a2b" stroke-width="7"/>
<path d="M 132 258 Q 256 196 380 258" fill="none" stroke="#1a1a1a" stroke-width="10" stroke-linecap="round"/>
<path d="M 196 250 Q 196 168 234 168 Q 272 168 272 250 Z" fill="url(#s3d_46b4e8)" data-flat="#46b4e8" stroke="#1a1a1a" stroke-width="9" stroke-linejoin="round"/>
<path d="M 200 200 Q 234 214 268 200" fill="none" stroke="#ffffff" stroke-width="7" stroke-linecap="round"/>
<path d="M 288 252 Q 288 184 318 184 Q 348 184 348 252 Z" fill="url(#s3d_e23c3c)" data-flat="#e23c3c" stroke="#1a1a1a" stroke-width="9" stroke-linejoin="round"/>
<circle cx="318" cy="210" r="8" fill="#ffffff"/>
<circle cx="302" cy="232" r="6" fill="#ffffff"/>
<circle cx="334" cy="232" r="6" fill="#ffffff"/>
</svg>
