<svg xmlns="http://www.w3.org/2000/svg" viewBox="0 0 290 240" width="290" height="240"><defs><radialGradient id="s3d_a8d8c0" cx="0.35" cy="0.28" r="0.9"><stop offset="0" stop-color="#c2e4d3"/><stop offset="0.45" stop-color="#a8d8c0"/><stop offset="1" stop-color="#86ad9a"/></radialGradient></defs>
<circle cx="145" cy="120" r="98" fill="url(#s3d_a8d8c0)" data-flat="#a8d8c0" stroke="#1a1a1a" stroke-width="8"></circle><g transform="translate(145.000 120.000) scale(0.078125 -0.078125) translate(-681.997 -518.003)"><path d="M741 453Q950 453 1088.5 332.0Q1227 211 1227 27Q1227 -181 1100.0 -305.5Q973 -430 764 -430Q467 -430 289 -201L430 -90Q542 -283 764 -283Q897 -283 969.5 -201.5Q1042 -120 1042 27Q1042 173 937.5 250.5Q833 328 631 328H422L932 920Q813 913 729 913H317V0H137V1466H317V1061H1163V944Z" fill="#1a1a1a"/></g></svg>