<svg xmlns="http://www.w3.org/2000/svg" viewBox="2.91 36.19 506.18 506.18"><defs><radialGradient id="s3d_7ec8a0" cx="0.35" cy="0.28" r="0.9"><stop offset="0" stop-color="#a5d8bc"/><stop offset="0.45" stop-color="#7ec8a0"/><stop offset="1" stop-color="#65a080"/></radialGradient><radialGradient id="s3d_f5d6b0" cx="0.35" cy="0.28" r="0.9"><stop offset="0" stop-color="#f8e2c8"/><stop offset="0.45" stop-color="#f5d6b0"/><stop offset="1" stop-color="#c4ab8d"/></radialGradient><radialGradient id="s3d_6b4a2b" cx="0.35" cy="0.28" r="0.9"><stop offset="0" stop-color="#97806b"/><stop offset="0.45" stop-color="#6b4a2b"/><stop offset="1" stop-color="#563b22"/></radialGradient><radialGradient id="s3d_f4a0a0" cx="0.35" cy="0.28" r="0.9"><stop offset="0" stop-color="#f7bcbc"/><stop offset="0.45" stop-color="#f4a0a0"/><stop offset="1" stop-color="#c38080"/></radialGradient><radialGradient id="s3d_f1c9a5" cx="0.35" cy="0.28" r="0.9"><stop offset="0" stop-color="#f5d9c0"/><stop offset="0.45" stop-color="#f1c9a5"/><stop offset="1" stop-color="#c1a184"/></radialGradient><radialGradient id="s3d_e0473c" cx="0.35" cy="0.28" r="0.9"><stop offset="0" stop-color="#e97e76"/><stop offset="0.45" stop-color="#e0473c"/><stop offset="1" stop-color="#b33930"/></radialGradient></defs><metadata id="sah">{"v":1,"fig":[["h1","mc"],["h2","mc"]]}</metadata>
<rect x="223" y="286" width="66" height="104" rx="0" fill="#f1c9a5" stroke="#1a1a1a" stroke-width="5"/>
<path d="M 88 512 Q 104 360 200 352 L 312 352 Q 408 360 424 512 Z" fill="url(#s3d_7ec8a0)" data-flat="#7ec8a0" stroke="#1a1a1a" stroke-width="5" stroke-linejoin="round"/>
<rect x="223" y="286" width="66" height="40" rx="0" fill="#f1c9a5" stroke="#1a1a1a" stroke-width="0"/>
<circle id="h1" data-fig="mc" cx="140" cy="224" r="22" fill="#f1c9a5" stroke="#1a1a1a" stroke-width="5"/>
<circle id="h2" data-fig="mc" cx="372" cy="224" r="22" fill="#f1c9a5" stroke="#1a1a1a" stroke-width="5"/>
<g data-fig="m" data-part="face"><g transform="translate(-58.86 37.88) scale(4.870 4.887)"><g transform="translate(3.30 10.82) scale(0.9392)"><g transform="translate(1 4)"><g transform="translate(63.5 50.0) scale(0.82 0.82) translate(-63.5 -52.0)"><g transform="matrix(1.0207,0,0,1.0207,-1.32509,-2.64997)"><g transform="matrix(1,0,0,1,28.02,0)"><path stroke="#1a1a1a" stroke-width="1.02" stroke-linejoin="round" d="M35.98,57.47C33.06,57.47 30.69,55.1 30.69,52.18L30.69,47.66L41.27,47.66L41.27,52.18C41.27,55.1 38.9,57.47 35.98,57.47Z" fill="#f5d6b0" fill-rule="nonzero" /></g></g></g></g></g><g transform="translate(3.30 10.82) scale(0.9392)"><g transform="translate(1 4)"><g transform="translate(63.5 50.0) scale(1.62 1.24) translate(-63.5 -50.0)"><g transform="matrix(1.0207,0,0,1.0207,-1.32509,-2.64997)"><g transform="matrix(1,0,0,1,28.02,0)"><path stroke="#1a1a1a" stroke-width="1.02" stroke-linejoin="round" d="M35.98,9.13C23.41,9.13 20.12,18.88 20.12,32.57C20.12,46.77 29.25,50.44 35.98,50.44C42.62,50.44 51.84,46.87 51.84,32.57C51.85,18.88 48.56,9.13 35.98,9.13Z" fill="url(#s3d_f5d6b0)" data-flat="#f5d6b0" fill-rule="nonzero" /></g></g></g></g></g></g></g>
<path d="M 138 192 Q 156 74 256 70 Q 356 74 374 192 Q 342 126 256 114 Q 170 126 138 192 Z" fill="url(#s3d_6b4a2b)" data-flat="#6b4a2b" stroke="#1a1a1a" stroke-width="4" stroke-linejoin="round"/>
<path d="M 194 166 Q 212 152 230 162" fill="none" stroke="#1a1a1a" stroke-width="5" stroke-linejoin="round"/>
<path d="M 282 162 Q 300 152 318 166" fill="none" stroke="#1a1a1a" stroke-width="5" stroke-linejoin="round"/>
<path d="M 192 204 Q 212 220 232 204" fill="none" stroke="#1a1a1a" stroke-width="5" stroke-linejoin="round"/>
<path d="M 280 204 Q 300 220 320 204" fill="none" stroke="#1a1a1a" stroke-width="5" stroke-linejoin="round"/>
<path d="M 220 266 Q 256 296 292 266" fill="none" stroke="#1a1a1a" stroke-width="6" stroke-linejoin="round"/>
<ellipse cx="196" cy="248" rx="18" ry="10" fill="url(#s3d_f4a0a0)" data-flat="#f4a0a0" stroke="#1a1a1a" stroke-width="0"/>
<ellipse cx="316" cy="248" rx="18" ry="10" fill="url(#s3d_f4a0a0)" data-flat="#f4a0a0" stroke="#1a1a1a" stroke-width="0"/>
<line x1="168" y1="470" x2="318" y2="360" stroke="#f1c9a5" stroke-width="26" stroke-linecap="round"/>
<path d="M 168 470 L 318 360" fill="none" stroke="#1a1a1a" stroke-width="30" stroke-linejoin="round"/>
<path d="M 168 470 L 318 360" fill="none" stroke="#f1c9a5" stroke-width="24" stroke-linejoin="round"/>
<path d="M 344 470 L 194 360" fill="none" stroke="#1a1a1a" stroke-width="30" stroke-linejoin="round"/>
<path d="M 344 470 L 194 360" fill="none" stroke="#f1c9a5" stroke-width="24" stroke-linejoin="round"/>
<ellipse cx="318" cy="358" rx="18" ry="15" fill="url(#s3d_f1c9a5)" data-flat="#f1c9a5" stroke="#1a1a1a" stroke-width="4"/>
<ellipse cx="194" cy="358" rx="18" ry="15" fill="url(#s3d_f1c9a5)" data-flat="#f1c9a5" stroke="#1a1a1a" stroke-width="4"/>
<path d="M 256 158 C 232 137 232 161 256 174 C 280 161 280 137 256 158 Z" fill="url(#s3d_e0473c)" data-flat="#e0473c" stroke="#1a1a1a" stroke-width="3" stroke-linejoin="round"/>
</svg>
