<svg xmlns="http://www.w3.org/2000/svg" viewBox="0 0 512 512" data-copyright="© 2026 Sensory App House"><!--SAH-COPYRIGHT © 2026 Sensory App House. All rights reserved.--><metadata id="sah-copyright"><rdf:RDF xmlns:rdf="http://www.w3.org/1999/02/22-rdf-syntax-ns#" xmlns:dc="http://purl.org/dc/elements/1.1/" xmlns:cc="http://creativecommons.org/ns#"><cc:Work rdf:about=""><dc:rights><cc:Agent><dc:title>© 2026 Sensory App House. All rights reserved.</dc:title></cc:Agent></dc:rights><dc:creator><cc:Agent><dc:title>Sensory App House (PiCom)</dc:title></cc:Agent></dc:creator><dc:date>2026</dc:date></cc:Work></rdf:RDF></metadata>
  
  <circle cx="340" cy="256" r="130" fill="#FFE0EC" stroke="#1a1a1a" stroke-width="2.0000" />
  <circle cx="340" cy="256" r="105" fill="#FFCCDC" stroke="#1a1a1a" stroke-width="2" />
  
  <circle cx="340" cy="256" r="56" fill="#F5A8C0" stroke="#1a1a1a" stroke-width="2.0000" />
  
  <g fill="#3A2A1A">
    <ellipse cx="324" cy="248" rx="5" ry="7" />
    <ellipse cx="356" cy="248" rx="5" ry="7" />
  </g>
  <ellipse cx="324" cy="246" rx="1.8" ry="2.5" fill="#FFFFFF" />
  <ellipse cx="356" cy="246" rx="1.8" ry="2.5" fill="#FFFFFF" />
  <path d="M 332 268 Q 340 274 348 268" stroke="#1a1a1a" stroke-width="2.0000" fill="none" stroke-linecap="round" />
  <circle cx="312" cy="266" r="5" fill="#FF99BB" opacity="0.7" />
  <circle cx="368" cy="266" r="5" fill="#FF99BB" opacity="0.7" />

  
  <g>
    
    <ellipse cx="180" cy="200" rx="26" ry="20" fill="#B8E0F5" stroke="#1a1a1a" stroke-width="2.0000" />
    <path d="M 154 200 Q 110 180 80 200 Q 110 220 60 210" stroke="#1a1a1a" stroke-width="4" fill="none" stroke-linecap="round" />
    <circle cx="172" cy="196" r="3" fill="#3A2A1A" />
    <circle cx="188" cy="196" r="3" fill="#3A2A1A" />
    <path d="M 176 210 Q 180 213 184 210" stroke="#1a1a1a" stroke-width="2" fill="none" stroke-linecap="round" />

    
    <ellipse cx="170" cy="290" rx="26" ry="20" fill="#C8E8F5" stroke="#1a1a1a" stroke-width="2.0000" />
    <path d="M 144 290 Q 100 310 70 290 Q 100 270 50 280" stroke="#1a1a1a" stroke-width="4" fill="none" stroke-linecap="round" />
    <circle cx="162" cy="286" r="3" fill="#3A2A1A" />
    <circle cx="178" cy="286" r="3" fill="#3A2A1A" />
    <path d="M 166 300 Q 170 303 174 300" stroke="#1a1a1a" stroke-width="2" fill="none" stroke-linecap="round" />

    
    <ellipse cx="140" cy="130" rx="22" ry="17" fill="#B8E0F5" stroke="#1a1a1a" stroke-width="2.0000" />
    <path d="M 118 130 Q 90 110 60 130" stroke="#1a1a1a" stroke-width="4" fill="none" stroke-linecap="round" />
    <circle cx="134" cy="128" r="2.5" fill="#3A2A1A" />
    <circle cx="148" cy="128" r="2.5" fill="#3A2A1A" />
    <path d="M 136 140 Q 141 143 146 140" stroke="#1a1a1a" stroke-width="2" fill="none" stroke-linecap="round" />
  </g>
  
  <g fill="#FFEC60">
    <circle cx="450" cy="130" r="6" />
    <circle cx="60" cy="400" r="5" />
    <circle cx="440" cy="400" r="5" />
  </g>
</svg>