<svg xmlns="http://www.w3.org/2000/svg" viewBox="0 0 512 512" data-copyright="© 2026 Sensory App House"><g transform="translate(0.000,8.397) scale(0.9836)"><defs><radialGradient id="s3d_4a90d9" cx="0.35" cy="0.28" r="0.9"><stop offset="0" stop-color="#80b1e4"/><stop offset="0.45" stop-color="#4a90d9"/><stop offset="1" stop-color="#3b73ae"/></radialGradient><radialGradient id="s3d_bfe3f2" cx="0.35" cy="0.28" r="0.9"><stop offset="0" stop-color="#d2ebf6"/><stop offset="0.45" stop-color="#bfe3f2"/><stop offset="1" stop-color="#99b6c2"/></radialGradient><radialGradient id="s3d_222428" cx="0.35" cy="0.28" r="0.9"><stop offset="0" stop-color="#646668"/><stop offset="0.45" stop-color="#222428"/><stop offset="1" stop-color="#1b1d20"/></radialGradient><radialGradient id="s3d_cfd6dd" cx="0.35" cy="0.28" r="0.9"><stop offset="0" stop-color="#dde2e7"/><stop offset="0.45" stop-color="#cfd6dd"/><stop offset="1" stop-color="#a6abb1"/></radialGradient></defs><!--SAH-COPYRIGHT © 2026 Sensory App House. All rights reserved.--><metadata id="sah-copyright"><rdf:RDF xmlns:rdf="http://www.w3.org/1999/02/22-rdf-syntax-ns#" xmlns:dc="http://purl.org/dc/elements/1.1/" xmlns:cc="http://creativecommons.org/ns#"><cc:Work rdf:about=""><dc:rights><cc:Agent><dc:title>© 2026 Sensory App House. All rights reserved.</dc:title></cc:Agent></dc:rights><dc:creator><cc:Agent><dc:title>Sensory App House (PiCom)</dc:title></cc:Agent></dc:creator><dc:date>2026</dc:date></cc:Work></rdf:RDF></metadata><g>
<path d="M 56 350 L 64 244 Q 66 220 90 218 L 150 214 L 200 162 Q 210 150 228 150 L 360 150 Q 384 150 392 174 L 420 230 L 446 244 Q 456 252 456 268 L 456 350 Z" fill="url(#s3d_4a90d9)" data-flat="#4a90d9" stroke="#1a1a1a" stroke-width="10" stroke-linejoin="round"/>
<path d="M 210 168 Q 216 162 226 162 L 280 162 L 280 220 L 168 220 Z" fill="url(#s3d_bfe3f2)" data-flat="#bfe3f2" stroke="#1a1a1a" stroke-width="6" stroke-linejoin="round"/>
<path d="M 296 162 L 354 162 Q 372 162 378 178 L 398 220 L 296 220 Z" fill="url(#s3d_bfe3f2)" data-flat="#bfe3f2" stroke="#1a1a1a" stroke-width="6" stroke-linejoin="round"/>
<line x1="288" y1="162" x2="288" y2="220" stroke="#1a1a1a" stroke-width="7"/>
<line x1="56" y1="322" x2="456" y2="322" stroke="#1a1a1a" stroke-width="8"/>
<circle cx="150" cy="350" r="44" fill="url(#s3d_222428)" data-flat="#222428" stroke="#1a1a1a" stroke-width="10"/>
<circle cx="150" cy="350" r="19" fill="url(#s3d_cfd6dd)" data-flat="#cfd6dd" stroke="#1a1a1a" stroke-width="5"/>
<circle cx="372" cy="350" r="44" fill="url(#s3d_222428)" data-flat="#222428" stroke="#1a1a1a" stroke-width="10"/>
<circle cx="372" cy="350" r="19" fill="url(#s3d_cfd6dd)" data-flat="#cfd6dd" stroke="#1a1a1a" stroke-width="5"/>
</g></g><g transform="translate(360 8) scale(0.2812)"><defs><radialGradient id="pl3377" cx="40%" cy="35%" r="65%"><stop offset="0%" stop-color="#7ed957"/><stop offset="100%" stop-color="#3aa324"/></radialGradient></defs><path d="M 256.0,56.0 L 281.0,212.7 L 429.2,156.0 L 306.0,256.0 L 429.2,356.0 L 281.0,299.3 L 256.0,456.0 L 231.0,299.3 L 82.8,356.0 L 206.0,256.0 L 82.8,156.0 L 231.0,212.7 Z" fill="url(#pl3377)" stroke="#1a1a1a" stroke-width="14" stroke-linejoin="round"/></g></svg>
