<svg xmlns="http://www.w3.org/2000/svg" viewBox="0 0 512 512" width="512" height="512" data-copyright="© 2026 Sensory App House"><!--SAH-COPYRIGHT © 2026 Sensory App House. All rights reserved.--><metadata id="sah-copyright"><rdf:RDF xmlns:rdf="http://www.w3.org/1999/02/22-rdf-syntax-ns#" xmlns:dc="http://purl.org/dc/elements/1.1/" xmlns:cc="http://creativecommons.org/ns#"><cc:Work rdf:about=""><dc:rights><cc:Agent><dc:title>© 2026 Sensory App House. All rights reserved.</dc:title></cc:Agent></dc:rights><dc:creator><cc:Agent><dc:title>Sensory App House (PiCom)</dc:title></cc:Agent></dc:creator><dc:date>2026</dc:date></cc:Work></rdf:RDF></metadata>
  <g transform="translate(-34.535 -23.165) scale(1.1969)">
  <defs>
    <radialGradient id="b" cx="42%" cy="34%" r="74%"><stop offset="0%" stop-color="#7a8090" /><stop offset="55%" stop-color="#5a6072" /><stop offset="100%" stop-color="#343a48" /></radialGradient>
    <radialGradient id="lens" cx="38%" cy="32%" r="72%"><stop offset="0%" stop-color="#dff3fd" /><stop offset="40%" stop-color="#7fb0e0" /><stop offset="100%" stop-color="#2f4a70" /></radialGradient>
    <radialGradient id="bl" cx="50%" cy="50%" r="50%"><stop offset="0%" stop-color="#f5878f" stop-opacity="0.6" /><stop offset="100%" stop-color="#f5878f" stop-opacity="0" /></radialGradient>
    <radialGradient id="ey" cx="46%" cy="32%" r="78%"><stop offset="0%" stop-color="#5a4233" /><stop offset="60%" stop-color="#3a2a20" /><stop offset="100%" stop-color="#241914" /></radialGradient>
    
    
  </defs>
  <rect x="230" y="68" width="52" height="100" rx="10" fill="#3a4050" stroke="#1a1a1a" stroke-width="2.5" />
  <rect x="220" y="152" width="72" height="20" rx="8" fill="#4a5060" stroke="#1a1a1a" stroke-width="2" />
  <path d="M130,200 Q140,170 180,168 L340,168 Q380,170 382,200 L382,280 Q380,310 340,312 L180,312 Q140,310 130,280 Z" fill="none" stroke="#1a1a1a" stroke-width="11" opacity="0.45" />
  <path d="M130,200 Q140,170 180,168 L340,168 Q380,170 382,200 L382,280 Q380,310 340,312 L180,312 Q140,310 130,280 Z" fill="url(#b)" stroke="#1a1a1a" stroke-width="1.6710" />
  <path d="M130,240 L100,218 L100,262 Z" fill="url(#b)" stroke="#1a1a1a" stroke-width="3" />
  <circle cx="310" cy="240" r="48" fill="#1a2030" stroke="#1a1a1a" stroke-width="1.6710" />
  <circle cx="310" cy="240" r="36" fill="url(#lens)" stroke="#1a1a1a" stroke-width="2" />
  <circle cx="310" cy="240" r="22" fill="#1a2a40" stroke="#1a1a1a" stroke-width="2" />
  <circle cx="310" cy="240" r="13" fill="url(#lens)" opacity="0.8" />
  
  <circle cx="170" cy="210" r="8" fill="#e83a3a" opacity="0.9" stroke="#1a1a1a" stroke-width="2" />
  <circle cx="170" cy="210" r="5" fill="#ff6060" />
  <ellipse cx="212" cy="386" rx="26" ry="17" fill="url(#bl)" stroke="#1a1a1a" stroke-width="2" />
  <ellipse cx="300" cy="386" rx="26" ry="17" fill="url(#bl)" stroke="#1a1a1a" stroke-width="2" />
  <ellipse cx="222" cy="368" rx="12" ry="15" fill="url(#ey)" stroke="#1a1a1a" stroke-width="2" />
  <ellipse cx="290" cy="368" rx="12" ry="15" fill="url(#ey)" stroke="#1a1a1a" stroke-width="2" />
  <ellipse cx="217" cy="362" rx="5" ry="6" fill="#ffffff" />
  <ellipse cx="285" cy="362" rx="5" ry="6" fill="#ffffff" />
  
  
  <path d="M234,390 C240,398 262,398 268,390" fill="none" stroke="#1a1a1a" stroke-width="4" stroke-linecap="round" />
</g>
  </svg>