<svg xmlns="http://www.w3.org/2000/svg" viewBox="0 0 512 512" data-copyright="© 2026 Sensory App House"><defs><radialGradient id="s3d_ff9900" cx="0.35" cy="0.28" r="0.9"><stop offset="0" stop-color="#ffb84c"/><stop offset="0.45" stop-color="#ff9900"/><stop offset="1" stop-color="#cc7a00"/></radialGradient></defs><!--SAH-COPYRIGHT © 2026 Sensory App House. All rights reserved.--><metadata id="sah-copyright"><rdf:RDF xmlns:rdf="http://www.w3.org/1999/02/22-rdf-syntax-ns#" xmlns:dc="http://purl.org/dc/elements/1.1/" xmlns:cc="http://creativecommons.org/ns#"><cc:Work rdf:about=""><dc:rights><cc:Agent><dc:title>© 2026 Sensory App House. All rights reserved.</dc:title></cc:Agent></dc:rights><dc:creator><cc:Agent><dc:title>Sensory App House (PiCom)</dc:title></cc:Agent></dc:creator><dc:date>2026</dc:date></cc:Work></rdf:RDF></metadata><g data-fit="1" transform="translate(44.00 80.55) scale(1.4621)"><path d="M 25,90 L 255,90 L 265,108 L 255,168 L 25,168 L 15,108 Z" fill="url(#s3d_ff9900)" data-flat="#ff9900" stroke="#1a1a1a" stroke-width="5.56" stroke-linejoin="round" stroke-linecap="round"></path><rect x="35" y="105" width="220" height="55" rx="3" fill="#9d7246" stroke="#1a1a1a" stroke-width="3.33"></rect><circle cx="70" cy="125" r="4" fill="#7d5e23"></circle><circle cx="85" cy="135" r="4" fill="#7d5e23"></circle><circle cx="100" cy="125" r="4" fill="#7d5e23"></circle><circle cx="120" cy="138" r="4" fill="#7d5e23"></circle><circle cx="140" cy="128" r="4" fill="#7d5e23"></circle><circle cx="160" cy="138" r="4" fill="#7d5e23"></circle><circle cx="180" cy="128" r="4" fill="#7d5e23"></circle><circle cx="200" cy="138" r="4" fill="#7d5e23"></circle><circle cx="220" cy="128" r="4" fill="#7d5e23"></circle><circle cx="78" cy="148" r="3" fill="#67832d"></circle><circle cx="135" cy="148" r="3" fill="#67832d"></circle><circle cx="195" cy="148" r="3" fill="#67832d"></circle><text x="50" y="85" font-family="sans-serif" font-size="12" font-weight="900" fill="#d01424">ENERGY</text></g></svg>