<svg xmlns="http://www.w3.org/2000/svg" viewBox="0 0 512 512" data-copyright="© 2026 Sensory App House"><!--SAH-COPYRIGHT © 2026 Sensory App House. All rights reserved.--><metadata id="sah-copyright"><rdf:RDF xmlns:rdf="http://www.w3.org/1999/02/22-rdf-syntax-ns#" xmlns:dc="http://purl.org/dc/elements/1.1/" xmlns:cc="http://creativecommons.org/ns#"><cc:Work rdf:about=""><dc:rights><cc:Agent><dc:title>© 2026 Sensory App House. All rights reserved.</dc:title></cc:Agent></dc:rights><dc:creator><cc:Agent><dc:title>Sensory App House (PiCom)</dc:title></cc:Agent></dc:creator><dc:date>2026</dc:date></cc:Work></rdf:RDF></metadata>
  
  <path d="M110 110 Q110 80 142 80 L370 80 Q402 80 402 110 L402 290 Q402 320 370 320 L142 320 Q110 320 110 290 Z" fill="#e8c8a8" stroke="#1a1a1a" stroke-width="3" stroke-linejoin="round" />
  <path d="M110 320 L110 440 Q110 470 142 470 L370 470 Q402 470 402 440 L402 320" fill="#f0d6b8" stroke="#1a1a1a" stroke-width="3" stroke-linejoin="round" />
  <path d="M150 140 L362 140 M150 180 L362 180 M150 220 L362 220 M150 260 L362 260" stroke="#1a1a1a" stroke-width="2" stroke-linecap="round" opacity="0.7" />
  <path d="M150 360 L362 360 M150 400 L362 400 M150 440 L362 440" stroke="#1a1a1a" stroke-width="2" stroke-linecap="round" opacity="0.7" />
  <path d="M140 100 L370 440" stroke="#1a1a1a" stroke-width="2.0000" stroke-linecap="round" />
  <path d="M148 110 L362 432" stroke="#1a1a1a" stroke-width="22" stroke-linecap="round" />
  <path d="M155 118 L360 425" stroke="#1a1a1a" stroke-width="3" stroke-dasharray="6 8" />
  <rect x="232" y="262" width="80" height="60" rx="14" fill="#cae8f8" stroke="#1a1a1a" stroke-width="3" />
  <rect x="244" y="274" width="56" height="36" rx="8" fill="#e0f0fa" stroke="#1a1a1a" stroke-width="2" />
  <g fill="#1f2933">
    <circle cx="258" cy="290" r="3" />
    <circle cx="286" cy="290" r="3" />
  </g>
  <path d="M263 300 Q272 305 281 300" fill="none" stroke="#1a1a1a" stroke-width="2" stroke-linecap="round" />
  <circle cx="248" cy="300" r="5" fill="#ffb0c8" opacity="0.8" />
  <circle cx="296" cy="300" r="5" fill="#ffb0c8" opacity="0.8" />
  <rect x="198" y="278" width="36" height="28" rx="6" fill="#c0c5cc" stroke="#1a1a1a" stroke-width="2" />
</svg>